<svg width="1400" height="255" viewBox="0 0 1400 255" xmlns="http://www.w3.org/2000/svg">
  <rect width="1400" height="255" rx="10" fill="#0C1118"/>
  <rect x="1" y="1" width="1398" height="253" rx="9" fill="none" stroke="#273340" stroke-width="2"/>
  <text x="48" y="54" fill="#FFC857" font-family="ui-monospace, SFMono-Regular, Menlo, monospace" font-size="13" font-weight="700" letter-spacing="3">TOOLKIT / 03</text>
  <text x="48" y="93" fill="#F1F5F9" font-family="Arial, Helvetica, sans-serif" font-size="23" font-weight="700">The tools change. The engineering principles stay.</text>

  <g font-family="ui-monospace, SFMono-Regular, Menlo, monospace" font-size="13" font-weight="700">
    <g fill="#111A23" stroke="#314150">
      <rect x="48" y="130" width="100" height="44" rx="5"/><rect x="158" y="130" width="112" height="44" rx="5"/>
      <rect x="280" y="130" width="88" height="44" rx="5"/><rect x="378" y="130" width="145" height="44" rx="5"/>
      <rect x="533" y="130" width="130" height="44" rx="5"/><rect x="673" y="130" width="100" height="44" rx="5"/>
      <rect x="783" y="130" width="115" height="44" rx="5"/><rect x="908" y="130" width="115" height="44" rx="5"/>
      <rect x="1033" y="130" width="145" height="44" rx="5"/><rect x="1188" y="130" width="85" height="44" rx="5"/>
    </g>
    <text x="69" y="158" fill="#9DEDE4">JAVA</text>
    <text x="179" y="158" fill="#B8D9FF">PYTHON</text>
    <text x="301" y="158" fill="#FFD77E">C++</text>
    <text x="396" y="158" fill="#9DEDE4">SPRING BOOT</text>
    <text x="554" y="158" fill="#B8D9FF">FASTAPI</text>
    <text x="694" y="158" fill="#FFD77E">REACT</text>
    <text x="804" y="158" fill="#9DEDE4">NEXT.JS</text>
    <text x="929" y="158" fill="#B8D9FF">DOCKER</text>
    <text x="1051" y="158" fill="#9DEDE4">KUBERNETES</text>
    <text x="1209" y="158" fill="#FFD77E">GIT</text>
  </g>
  <path d="M48 211H1352" stroke="#273340"/>
  <text x="48" y="232" fill="#687786" font-family="ui-monospace, SFMono-Regular, Menlo, monospace" font-size="11">LANGUAGES</text>
  <text x="176" y="232" fill="#A8B5C3" font-family="ui-monospace, SFMono-Regular, Menlo, monospace" font-size="11">JAVA · PYTHON · C++ · JAVASCRIPT</text>
  <text x="821" y="232" fill="#687786" font-family="ui-monospace, SFMono-Regular, Menlo, monospace" font-size="11">FOCUS</text>
  <text x="906" y="232" fill="#A8B5C3" font-family="ui-monospace, SFMono-Regular, Menlo, monospace" font-size="11">BACKEND · CLOUD · AI · KUBERNETES</text>
</svg>
